#!OML:ASF \\sashay\E\Suitcase\Project 1\Capture day 1\Session 1\Male1.ASF
:FULLY-SPECIFIED
:DEGREES
309
root 1.81574 17.3653 -24.8697 3.18186 0.272873 3.83602
lowerback 5.1317 -0.727181 -5.52416
upperback 1.23407 -1.26188 -0.233613
thorax -1.48993 -0.614444 2.93708
lowerneck -16.0073 -0.736128 -2.46908
upperneck 21.8992 -0.201735 -0.692352
head 9.57464 -0.381083 0.146835
rclavicle 3.50358e-015 6.36111e-015
rhumerus -45.4658 -33.7924 -54.1638
rradius 15.1172
rwrist 6.61576
rhand -14.4789 19.4279
rfingers 7.12502
rthumb 11.6673 -10.2272
lclavicle 3.50358e-015 6.36111e-015
lhumerus -31.21 4.1401 80.56
lradius 40.6371
lwrist -1.71592
lhand -2.83532 41.4151
lfingers 7.12502
lthumb 22.872 70.0788
rfemur -23.0046 -6.00728 14.8818
rtibia 63.2073
rfoot -14.1801 -5.66509
rtoes 3.13553
lfemur -9.85382 -2.22801 -29.3623
ltibia 24.7384
lfoot -19.8455 -1.5247
ltoes 1.2114
310
root 1.81323 17.3563 -24.7732 3.08696 0.403512 3.479
lowerback 5.49837 -0.695154 -5.25909
upperback 1.081 -1.22998 -0.0855403
thorax -1.85855 -0.586482 2.94847
lowerneck -15.8119 -0.699238 -2.57178
upperneck 21.8473 -0.168544 -0.534226
head 9.51965 -0.355117 0.223655
rclavicle -8.07563e-015 2.38542e-015
rhumerus -45.9469 -33.23 -53.876
rradius 15.0288
rwrist 6.31741
rhand -14.5597 18.7549
rfingers 7.12502
rthumb 11.5894 -10.9046
lclavicle -8.07563e-015 2.38542e-015
lhumerus -31.5283 3.92151 80.648
lradius 41.2177
lwrist -1.13526
lhand -3.47694 41.2941
lfingers 7.12502
lthumb 22.2562 70.0325
rfemur -23.7405 -5.74914 15.2866
rtibia 62.3848
rfoot -15.1719 -5.90668
rtoes 2.49479
lfemur -9.52498 -2.18539 -28.9708
ltibia 24.9185
lfoot -20.236 -1.43484
ltoes 1.35827
311
root 1.80826 17.3491 -24.6696 3.11948 0.391673 3.48757
lowerback 5.43452 -0.677282 -5.42725
upperback 1.09168 -1.21035 -0.0303916
thorax -1.8087 -0.57736 3.09727
lowerneck -15.5456 -0.7191 -2.57139
upperneck 21.4125 -0.206649 -0.55009
head 9.31834 -0.369355 0.214374
rclavicle 1.77788e-014 2.78299e-015
rhumerus -46.6282 -34.3611 -52.4608
rradius 14.4308
rwrist 7.96691
rhand -14.3359 19.2374
rfingers 7.12502
rthumb 11.8052 -10.4099
lclavicle 1.77788e-014 2.78299e-015
lhumerus -31.5741 4.05269 80.6067
lradius 41.7056
lwrist -0.79834
lhand -3.34297 42.5945
lfingers 7.12502
lthumb 22.3848 71.3176
rfemur -24.5819 -5.2864 15.3195
rtibia 61.4024
rfoot -15.2664 -6.32606
rtoes 5.30496
lfemur -9.28394 -2.2113 -28.9913
ltibia 25.1806
lfoot -20.6827 -0.868453
ltoes -0.962658
312
root 1.81388 17.3382 -24.5727 3.12476 0.889922 3.79673
lowerback 5.56467 -0.786285 -5.63964
upperback 1.07156 -1.3781 -0.106215
thorax -1.88335 -0.657389 3.15189
lowerneck -15.65 -0.764732 -2.51787
upperneck 21.4535 -0.275039 -0.570436
head 9.35251 -0.399629 0.189544
rclavicle 2.95816e-014 2.98177e-016
rhumerus -46.5448 -33.0302 -53.4368
rradius 14.9057
rwrist 6.34559
rhand -14.6054 17.9846
rfingers 7.12502
rthumb 11.5453 -11.6774
lclavicle 2.95816e-014 2.98177e-016
lhumerus -31.6085 3.57417 80.6954
lradius 42.0331
lwrist -0.443986
lhand -3.42313 42.727
lfingers 7.12502
lthumb 22.3078 71.4593
rfemur -25.2508 -5.58826 14.8976
rtibia 60.4022
rfoot -15.2689 -6.42931
rtoes 6.70017
lfemur -8.95195 -2.29827 -29.3456
ltibia 25.3479
lfoot -21.1039 -1.13747
ltoes -0.573471
313
root 1.80136 17.332 -24.4788 3.12065 0.991446 3.33002
lowerback 5.66127 -0.835482 -5.34513
upperback 1.07174 -1.42872 0.055881
thorax -1.93552 -0.682552 3.15988
lowerneck -15.7862 -0.741407 -2.28744
upperneck 21.5608 -0.241649 -0.801659
head 9.41425 -0.392682 0.074953
rclavicle 4.74598e-015 1.53064e-014
rhumerus -47.3024 -34.1637 -52.0036
rradius 14.5186
rwrist 8.02916
rhand -14.3173 17.8519
rfingers 7.12502
rthumb 11.8231 -11.7943
lclavicle 4.74598e-015 1.53064e-014
lhumerus -31.8996 3.61911 80.5908
lradius 42.6162
lwrist -0.360715
lhand -3.55266 42.3754
lfingers 7.12502
lthumb 22.1835 71.1225
rfemur -26.0593 -5.00417 15.4585
rtibia 59.2031
rfoot -15.9959 -7.44685
rtoes 5.89452
lfemur -8.61174 -2.55269 -28.7952
ltibia 25.4366
lfoot -21.4455 -0.674176
ltoes -1.12977
314
root 1.8084 17.3206 -24.3772 3.2232 1.24458 3.79125
lowerback 5.67965 -0.926739 -5.63009
upperback 0.975659 -1.57451 -0.080164
thorax -2.02762 -0.749112 3.19061
lowerneck -15.6029 -0.753024 -2.60162
upperneck 21.5066 -0.266918 -0.45048
head 9.36244 -0.389789 0.245943
rclavicle 1.58407e-014 -2.40529e-014
rhumerus -47.4902 -33.7125 -52.0521
rradius 14.5654
rwrist 7.72391
rhand -14.5249 17.1596
rfingers 7.12502
rthumb 11.6229 -12.498
lclavicle 1.58407e-014 -2.40529e-014
lhumerus -31.8368 3.55732 80.5549
lradius 42.8203
lwrist 0.123265
lhand -3.41064 41.435
lfingers 7.12502
lthumb 22.3198 70.1659
rfemur -26.7719 -5.16757 14.854
rtibia 58.1003
rfoot -16.6963 -7.77579
rtoes 3.91402
lfemur -8.27457 -2.67178 -29.3445
ltibia 25.3207
lfoot -21.8326 -0.492236
ltoes -2.01297
315
root 1.79698 17.3132 -24.2763 3.07857 1.56312 3.51128
lowerback 5.80005 -1.10871 -5.4077
upperback 1.11401 -1.80449 -0.0101496
thorax -1.9343 -0.870352 3.15478
lowerneck -15.5867 -0.727004 -2.61307
upperneck 21.3096 -0.246599 -0.384257
head 9.29041 -0.371928 0.273337
rclavicle -3.85145e-015 2.08724e-015
rhumerus -47.7389 -34.3144 -51.3717
rradius 14.0817
rwrist 8.61661
rhand -14.7697 16.8055
rfingers 7.12502
rthumb 11.3869 -12.8653
lclavicle -3.85145e-015 2.08724e-015
lhumerus -31.8885 3.58801 80.3659
lradius 43.1216
lwrist 0.338771
lhand -3.51473 41.9827
lfingers 7.12502
lthumb 22.2199 70.7255
rfemur -27.2087 -4.9064 15.182
rtibia 56.7145
rfoot -16.9691 -8.85542
rtoes 3.27625
lfemur -7.7071 -2.59406 -28.9674
ltibia 25.2496
lfoot -21.8606 -0.453369
ltoes -3.44074
